<svg width="5" height="22" viewBox="0 0 5 22" fill="none" xmlns="http://www.w3.org/2000/svg">
<path d="M2.90225 4.20007C2.31156 4.20007 1.81614 4 1.41599 3.59985C1.01585 3.19971 0.815775 2.70429 0.815775 2.1136C0.815775 1.52291 1.01585 1.02749 1.41599 0.627345C1.81614 0.227199 2.31156 0.0271267 2.90225 0.0271267C3.47388 0.0271267 3.95978 0.227199 4.35992 0.627345C4.76007 1.02749 4.96014 1.52291 4.96014 2.1136C4.96014 2.70429 4.76007 3.19971 4.35992 3.59985C3.95978 4 3.47388 4.20007 2.90225 4.20007ZM2.90225 13.2001C2.31156 13.2001 1.81614 13 1.41599 12.5999C1.01585 12.1997 0.815775 11.7043 0.815775 11.1136C0.815775 10.5229 1.01585 10.0275 1.41599 9.62735C1.81614 9.2272 2.31156 9.02713 2.90225 9.02713C3.47388 9.02713 3.95978 9.2272 4.35992 9.62735C4.76007 10.0275 4.96014 10.5229 4.96014 11.1136C4.96014 11.7043 4.76007 12.1997 4.35992 12.5999C3.95978 13 3.47388 13.2001 2.90225 13.2001ZM2.90225 21.2001C2.31156 21.2001 1.81614 21 1.41599 20.5999C1.01585 20.1997 0.815775 19.7043 0.815775 19.1136C0.815775 18.5229 1.01585 18.0275 1.41599 17.6273C1.81614 17.2272 2.31156 17.0271 2.90225 17.0271C3.47388 17.0271 3.95978 17.2272 4.35992 17.6273C4.76007 18.0275 4.96014 18.5229 4.96014 19.1136C4.96014 19.7043 4.76007 20.1997 4.35992 20.5999C3.95978 21 3.47388 21.2001 2.90225 21.2001Z" fill="black"/>
</svg>
