<svg width="41" height="41" viewBox="0 0 41 41" fill="none" xmlns="http://www.w3.org/2000/svg">
<path d="M20 40C8.95375 40 0 31.0462 0 20C0 8.95375 8.95375 0 20 0C31.0462 0 40 8.95375 40 20C40 25.3043 37.8929 30.3914 34.1421 34.1421C30.3914 37.8929 25.3043 40 20 40Z" fill="#FCF8F5"/>
<path fill-rule="evenodd" clip-rule="evenodd" d="M18.9672 19.8378L0.273193 0.0332371L40.2732 0.0332336L21.7658 19.6402V38.2214L29.6447 40.9272L10.9016 40.9272L18.9672 38.1573V19.8378Z" fill="url(#paint0_linear_55_118)"/>
<path d="M19.7533 17.2727C19.7533 17.2727 40.0632 -2.08088 32.1972 4.38049C29.0582 6.95896 26.3996 9.18722 20.5701 11.4294C14.7405 13.6715 6.41263 1.80191 11.1211 8.192C14.0791 12.2064 19.7533 17.2727 19.7533 17.2727Z" fill="#272932"/>
<defs>
<linearGradient id="paint0_linear_55_118" x1="40.2282" y1="-4.67525" x2="8.50197" y2="41.1764" gradientUnits="userSpaceOnUse">
<stop stop-color="#7CCADC"/>
<stop offset="0.315" stop-color="#897BA2"/>
<stop offset="0.523965" stop-color="#D98080"/>
<stop offset="0.648398" stop-color="#F4CE7D"/>
<stop offset="1" stop-color="#69B2A0"/>
</linearGradient>
</defs>
</svg>
