<svg width="27" height="36" viewBox="0 0 27 36" fill="none" xmlns="http://www.w3.org/2000/svg">
<path d="M11.1429 0L5.08224 14.762L7.00373 15.1113L8.91761 13.2962L9.26697 15.9164L11.5834 17.1771L9.20621 18.3163L8.72774 20.9062L6.90499 18.9999L4.29239 19.3416L5.54553 17.0176L4.80124 15.4531L0.0674112 26.9744C-0.12018 27.9313 0.0886768 28.6452 0.632463 29.3212C1.18612 30.0047 2.12788 30.6123 3.35823 31.0832C3.90505 31.2958 4.49745 31.4781 5.13541 31.63L5.37085 30.8781L3.51772 28.4022L6.6088 28.3566L8.39357 25.8352L9.39608 28.7592L12.3505 29.6781L9.86696 31.5313L9.87455 32.2983C10.8771 32.3591 11.9024 32.3743 12.9277 32.3439C16.4668 32.2452 19.9984 31.6452 22.3908 30.7034C23.5907 30.2326 24.4945 29.6705 24.9654 29.1313C25.4363 28.5921 25.5426 28.182 25.3071 27.5744L16.3301 10.0912L15.9884 10.076L14.3327 12.1266L13.6416 9.58234L11.1733 8.64058L13.3833 7.19757L13.5125 4.60851L11.1429 0ZM16.8162 18.8328L18.7529 21.2479L21.8439 21.1112L20.1427 23.6934L21.2287 26.5871L18.244 25.7744L15.8289 27.7035L15.6846 24.6124L13.1023 22.9112L15.9959 21.8175L16.8162 18.8328ZM26.6135 28.9794C26.4767 29.3591 26.2717 29.7161 25.9983 30.0275C25.854 30.1946 25.6869 30.3541 25.5046 30.506C25.5274 30.8477 25.497 31.1515 25.4211 31.4173C25.216 32.192 24.6844 32.7464 23.7654 33.1717C21.9275 34.0223 18.6313 34.1211 15.1074 33.6198C15.0694 33.6122 15.0314 33.6046 14.9934 33.6046C14.3251 33.6578 13.6416 33.6882 12.9656 33.711C11.4846 33.7489 9.99607 33.711 8.56825 33.5743C10.6188 34.1818 12.7985 34.6679 14.9175 34.9717C18.5706 35.4881 22.011 35.4957 24.3426 34.4097C25.5122 33.8704 26.416 32.9895 26.7426 31.7743C26.9628 30.9465 26.9172 30.0199 26.6135 28.9794Z" fill="#272932"/>
</svg>
