<svg width="20" height="23" viewBox="0 0 20 23" fill="none" xmlns="http://www.w3.org/2000/svg">
<path d="M12.7778 17.7778C12 17.7778 11.3426 17.5093 10.8056 16.9722C10.2685 16.4352 10 15.7778 10 15C10 14.2222 10.2685 13.5648 10.8056 13.0278C11.3426 12.4907 12 12.2222 12.7778 12.2222C13.5556 12.2222 14.213 12.4907 14.75 13.0278C15.287 13.5648 15.5556 14.2222 15.5556 15C15.5556 15.7778 15.287 16.4352 14.75 16.9722C14.213 17.5093 13.5556 17.7778 12.7778 17.7778ZM2.22222 22.2222C1.61111 22.2222 1.08815 22.0048 0.653333 21.57C0.218519 21.1352 0.000740741 20.6119 0 20V4.44444C0 3.83333 0.217778 3.31037 0.653333 2.87556C1.08889 2.44074 1.61185 2.22296 2.22222 2.22222H3.33333V0H5.55556V2.22222H14.4444V0H16.6667V2.22222H17.7778C18.3889 2.22222 18.9122 2.44 19.3478 2.87556C19.7833 3.31111 20.0007 3.83407 20 4.44444V20C20 20.6111 19.7826 21.1344 19.3478 21.57C18.913 22.0056 18.3896 22.223 17.7778 22.2222H2.22222ZM2.22222 20H17.7778V8.88889H2.22222V20Z" fill="#272932"/>
</svg>
