<svg width="20" height="23" viewBox="0 0 20 23" fill="none" xmlns="http://www.w3.org/2000/svg">
<path d="M17.7778 20V7.77778H2.22222V20H17.7778ZM14.4444 0H16.6667V2.22222H17.7778C18.3671 2.22222 18.9324 2.45635 19.3491 2.8731C19.7659 3.28984 20 3.85507 20 4.44444V20C20 21.2333 19.0111 22.2222 17.7778 22.2222H2.22222C1.63285 22.2222 1.06762 21.9881 0.650874 21.5713C0.234126 21.1546 0 20.5894 0 20V4.44444C0 3.22222 1 2.22222 2.22222 2.22222H3.33333V0H5.55556V2.22222H14.4444V0ZM10 17.9667L9.35556 17.3778C7.06667 15.3 5.55556 13.9333 5.55556 12.2556C5.55556 10.8889 6.63333 9.81111 8 9.81111C8.77778 9.81111 9.51111 10.1667 10 10.7333C10.4889 10.1667 11.2222 9.81111 12 9.81111C13.3667 9.81111 14.4444 10.8889 14.4444 12.2556C14.4444 13.9333 12.9333 15.3 10.6444 17.3778L10 17.9667Z" fill="#272932"/>
</svg>
