<svg width="35" height="35" viewBox="0 0 35 35" fill="none" xmlns="http://www.w3.org/2000/svg">
<circle cx="17.5" cy="17.5" r="17.5" fill="#7CCADC"/>
<path d="M19.0932 13.0205H20.7016C20.8495 13.0205 20.9696 12.9074 20.9696 12.7679V11.2524C20.9696 11.1129 20.8495 10.9998 20.7016 10.9998H19.0932C17.4677 10.9998 16.1445 12.2461 16.1445 13.7783V15.5465H14.2681C14.1201 15.5465 14 15.6597 14 15.7991V17.3147C14 17.4541 14.1201 17.5673 14.2681 17.5673H16.1445V22.8719C16.1445 23.0113 16.2646 23.1245 16.4126 23.1245H18.0209C18.1689 23.1245 18.289 23.0113 18.289 22.8719V17.5673H20.1655C20.2807 17.5673 20.3831 17.4976 20.4201 17.3945L20.9562 15.8789C20.9836 15.8021 20.9696 15.7173 20.9192 15.6511C20.8683 15.5854 20.7879 15.5465 20.7016 15.5465H18.289V13.7783C18.289 13.3605 18.6498 13.0205 19.0932 13.0205Z" fill="#272932"/>
</svg>
