<svg width="36" height="36" viewBox="0 0 36 36" fill="none" xmlns="http://www.w3.org/2000/svg">
<path d="M35.8766 10.4411C32.9131 10.2781 29.973 11.0484 27.4702 12.6436C26.8649 11.9543 26.2428 11.265 25.5871 10.6093L25.0996 10.1553L25.3349 9.95355C26.1571 9.24776 26.7431 8.30676 27.0136 7.25751C27.2842 6.20826 27.2264 5.10126 26.8481 4.08587C26.3015 2.93954 25.4339 1.97659 24.3504 1.31401C23.267 0.651421 22.0145 0.317714 20.745 0.353424V3.71599C21.3432 3.70766 21.9328 3.85908 22.453 4.15463C22.9731 4.45017 23.405 4.87914 23.7041 5.39727C23.9899 6.06979 23.7041 6.80955 22.9139 7.59976L22.5272 7.95283C20.7736 6.49141 18.8483 5.2493 16.794 4.254C12.5404 2.33734 10.3547 3.22842 9.27869 4.254C8.95144 4.58319 8.68908 4.97103 8.5053 5.39727L8.20267 6.28835L5.78162 13.5851C7.69829 18.36 12.3386 26.8505 22.4263 30.5157L30.8327 27.7247C31.1162 27.6192 31.366 27.4391 31.5557 27.2035L31.9088 26.9009C34.313 24.4798 32.7662 19.8227 29.5382 15.3C31.4549 14.1814 33.6619 13.6604 35.8766 13.8037V10.4411ZM29.5045 24.5135H29.4037C28.2436 25.1355 23.4351 23.5551 17.9877 18.1078C17.4161 17.5361 16.8781 16.9813 16.3905 16.4265C16.2224 16.2416 16.0711 16.0398 15.9029 15.838L15.0119 14.762L14.5411 14.1063C14.3057 13.7869 14.0703 13.4674 13.8686 13.1648C13.6668 12.8622 13.5996 12.7277 13.4651 12.5091C13.3306 12.2905 13.0952 11.9375 12.9439 11.6516C12.7926 11.3658 12.7253 11.2481 12.6244 11.0296C12.5236 10.811 12.3386 10.5588 12.2378 10.3234C12.1369 10.0881 12.0864 9.93674 12.0024 9.7518C11.9183 9.56686 11.8174 9.29785 11.7502 9.07928C11.6829 8.86072 11.6661 8.75984 11.6325 8.59171C11.5989 8.42358 11.5316 8.1882 11.498 8.02008C11.4899 7.88569 11.4899 7.75095 11.498 7.61657C11.4822 7.47129 11.4822 7.32472 11.498 7.17943L11.6829 6.65824C11.9687 6.35561 13.2129 6.27154 15.4322 7.28031C16.9143 7.99468 18.3174 8.86249 19.6186 9.86949C18.9096 10.1814 18.1542 10.3745 17.3825 10.4411V13.8037C19.169 13.7044 20.9026 13.1613 22.4263 12.2233L23.2502 12.9967C23.9899 13.7196 24.6456 14.4426 25.2509 15.1319C24.2359 16.86 23.8331 18.8798 24.1076 20.8651L27.4702 20.2094C27.3555 19.5756 27.3555 18.9265 27.4702 18.2927C29.639 21.6048 30.0425 23.9923 29.5045 24.5135ZM4.60472 17.1663L0.855463 28.4309C0.584856 29.2579 0.513806 30.1372 0.648119 30.997C0.782432 31.8567 1.1183 32.6725 1.62826 33.3776C2.13821 34.0827 2.80779 34.6571 3.58226 35.0538C4.35672 35.4506 5.21408 35.6584 6.08425 35.6604C6.65631 35.6551 7.22387 35.5586 7.76554 35.3746L18.7275 31.7262C12.5406 28.5665 7.57443 23.4466 4.60472 17.1663Z" fill="#272932"/>
</svg>
