<svg width="16" height="17" viewBox="0 0 16 17" fill="none" xmlns="http://www.w3.org/2000/svg">
<path d="M11.9307 1.95172C13.0808 2.61576 14.0359 3.57086 14.7 4.72101C15.364 5.87116 15.7136 7.17584 15.7136 8.50392C15.7136 9.832 15.364 11.1367 14.6999 12.2868C14.0359 13.437 13.0808 14.3921 11.9306 15.0561C10.7805 15.7201 9.47577 16.0697 8.14769 16.0696C6.81961 16.0696 5.51493 15.72 4.36479 15.056C3.21466 14.3919 2.25958 13.4368 1.59557 12.2866C0.931555 11.1365 0.581998 9.83176 0.582031 8.50368L0.585814 8.25855C0.628185 6.95193 1.0084 5.67859 1.68939 4.56266C2.37038 3.44674 3.3289 2.52631 4.47151 1.89111C5.61413 1.25591 6.90183 0.927615 8.20909 0.938238C9.51635 0.948861 10.7986 1.29804 11.9307 1.95172ZM8.14781 3.96422C7.94715 3.96422 7.75471 4.04393 7.61283 4.18581C7.47094 4.3277 7.39123 4.52014 7.39123 4.72079V8.52335L7.39804 8.60279L7.41317 8.68375L7.44343 8.78135L7.47975 8.85852L7.51455 8.91753L7.54633 8.96292L7.59853 9.02345L7.66511 9.08625L7.72791 9.13315L9.99764 10.6463C10.0803 10.7015 10.173 10.7398 10.2705 10.7591C10.368 10.7784 10.4683 10.7783 10.5657 10.7589C10.6632 10.7394 10.7558 10.7009 10.8384 10.6457C10.921 10.5904 10.9919 10.5194 11.047 10.4367C11.1022 10.3541 11.1405 10.2614 11.1598 10.1639C11.1791 10.0664 11.179 9.96609 11.1596 9.86865C11.1401 9.7712 11.1016 9.67855 11.0464 9.59597C10.9911 9.51339 10.9201 9.44251 10.8374 9.38736L8.90438 8.09816V4.72079C8.90436 4.53548 8.83633 4.35663 8.71319 4.21815C8.59005 4.07967 8.42036 3.99119 8.23633 3.96951L8.14781 3.96422Z" fill="#356773"/>
</svg>
