<svg width="16" height="17" viewBox="0 0 16 17" fill="none" xmlns="http://www.w3.org/2000/svg">
<path d="M11.9305 1.95172C13.0806 2.61576 14.0357 3.57086 14.6997 4.72101C15.3638 5.87116 15.7133 7.17584 15.7133 8.50392C15.7133 9.832 15.3637 11.1367 14.6997 12.2868C14.0356 13.437 13.0805 14.3921 11.9304 15.0561C10.7802 15.7201 9.47552 16.0697 8.14744 16.0696C6.81936 16.0696 5.51469 15.72 4.36455 15.056C3.21441 14.3919 2.25934 13.4368 1.59532 12.2866C0.931311 11.1365 0.581753 9.83176 0.581787 8.50368L0.58557 8.25855C0.627941 6.95193 1.00815 5.67859 1.68914 4.56266C2.37013 3.44674 3.32866 2.52631 4.47127 1.89111C5.61388 1.25591 6.90159 0.927615 8.20885 0.938238C9.51611 0.948861 10.7983 1.29804 11.9305 1.95172ZM8.14756 3.96422C7.94691 3.96422 7.75447 4.04393 7.61258 4.18581C7.4707 4.3277 7.39099 4.52014 7.39099 4.72079V8.52335L7.39779 8.60279L7.41293 8.68375L7.44319 8.78135L7.4795 8.85852L7.51431 8.91753L7.54608 8.96292L7.59829 9.02345L7.66487 9.08625L7.72766 9.13315L9.99739 10.6463C10.0801 10.7015 10.1728 10.7398 10.2702 10.7591C10.3677 10.7784 10.468 10.7783 10.5655 10.7589C10.6629 10.7394 10.7556 10.7009 10.8382 10.6457C10.9207 10.5904 10.9916 10.5194 11.0468 10.4367C11.1019 10.3541 11.1402 10.2614 11.1595 10.1639C11.1789 10.0664 11.1788 9.96609 11.1593 9.86865C11.1399 9.7712 11.1014 9.67855 11.0461 9.59597C10.9909 9.51339 10.9199 9.44251 10.8372 9.38736L8.90414 8.09816V4.72079C8.90412 4.53548 8.83608 4.35663 8.71294 4.21815C8.5898 4.07967 8.42012 3.99119 8.23608 3.96951L8.14756 3.96422Z" fill="#8C5050"/>
</svg>
