<svg width="16" height="19" viewBox="0 0 16 19" fill="none" xmlns="http://www.w3.org/2000/svg">
<path d="M7.43197 18.1128L7.20849 17.9615C6.09001 17.1789 5.05069 16.2889 4.10535 15.3041C2.44438 13.564 0.582031 10.9556 0.582031 7.87687C0.582031 4.08932 3.65606 0.312256 8.14781 0.312256C12.6395 0.312256 15.7136 4.08932 15.7136 7.87803C15.7136 10.9567 13.8512 13.5652 12.1903 15.303C11.2449 16.2877 10.2056 17.1777 9.08713 17.9603C8.99246 18.0263 8.91796 18.0767 8.86365 18.1116C8.62736 18.2688 8.38642 18.4177 8.14781 18.5691C7.90919 18.4177 7.66825 18.2688 7.43197 18.1128ZM8.14781 10.206C8.76521 10.206 9.35733 9.9607 9.7939 9.52413C10.2305 9.08756 10.4757 8.49544 10.4757 7.87803C10.4757 7.26063 10.2305 6.66851 9.7939 6.23194C9.35733 5.79536 8.76521 5.5501 8.14781 5.5501C7.5304 5.5501 6.93828 5.79536 6.50171 6.23194C6.06514 6.66851 5.81988 7.26063 5.81988 7.87803C5.81988 8.49544 6.06514 9.08756 6.50171 9.52413C6.93828 9.9607 7.5304 10.206 8.14781 10.206Z" fill="#356773"/>
</svg>
