<svg width="16" height="19" viewBox="0 0 16 19" fill="none" xmlns="http://www.w3.org/2000/svg">
<path d="M7.43172 18.1128L7.20824 17.9615C6.08977 17.1789 5.05045 16.2889 4.10511 15.3041C2.44413 13.564 0.581787 10.9556 0.581787 7.87687C0.581787 4.08932 3.65582 0.312256 8.14756 0.312256C12.6393 0.312256 15.7133 4.08932 15.7133 7.87803C15.7133 10.9567 13.851 13.5652 12.19 15.303C11.2447 16.2877 10.2054 17.1777 9.08688 17.9603C8.99221 18.0263 8.91772 18.0767 8.8634 18.1116C8.62712 18.2688 8.38618 18.4177 8.14756 18.5691C7.90895 18.4177 7.66801 18.2688 7.43172 18.1128ZM8.14756 10.206C8.76497 10.206 9.35709 9.9607 9.79366 9.52413C10.2302 9.08756 10.4755 8.49544 10.4755 7.87803C10.4755 7.26063 10.2302 6.66851 9.79366 6.23194C9.35709 5.79536 8.76497 5.5501 8.14756 5.5501C7.53016 5.5501 6.93804 5.79536 6.50147 6.23194C6.0649 6.66851 5.81963 7.26063 5.81963 7.87803C5.81963 8.49544 6.0649 9.08756 6.50147 9.52413C6.93804 9.9607 7.53016 10.206 8.14756 10.206Z" fill="#8C5050"/>
</svg>
