<svg width="375" height="55" viewBox="0 0 375 55" fill="none" xmlns="http://www.w3.org/2000/svg">
<circle cx="23" cy="28" r="23" fill="#D98080"/>
<path d="M56.8249 27.751C56.8249 24.1707 57.6244 20.9728 59.2233 18.1572C60.8571 15.3069 63.0643 13.0997 65.8451 11.5355C68.6607 9.9365 71.8065 9.13702 75.2825 9.13702C79.3494 9.13702 82.9123 10.1798 85.9712 12.2654C89.03 14.351 91.1678 17.2361 92.3844 20.9207H83.9898C83.1556 19.1827 81.9738 17.8792 80.4443 17.0102C78.9496 16.1412 77.2116 15.7067 75.2303 15.7067C73.11 15.7067 71.2155 16.2107 69.5471 17.2187C67.9133 18.192 66.6272 19.5824 65.6887 21.3899C64.7849 23.1974 64.3331 25.3178 64.3331 27.751C64.3331 30.1494 64.7849 32.2698 65.6887 34.1121C66.6272 35.9196 67.9133 37.3274 69.5471 38.3354C71.2155 39.3087 73.11 39.7953 75.2303 39.7953C77.2116 39.7953 78.9496 39.3608 80.4443 38.4918C81.9738 37.5881 83.1556 36.2672 83.9898 34.5292H92.3844C91.1678 38.2485 89.03 41.151 85.9712 43.2366C82.947 45.2874 79.3841 46.3128 75.2825 46.3128C71.8065 46.3128 68.6607 45.5307 65.8451 43.9665C63.0643 42.3676 60.8571 40.1603 59.2233 37.3448C57.6244 34.5292 56.8249 31.3313 56.8249 27.751ZM105.919 15.4981V24.6226H118.172V30.4101H105.919V40.056H119.736V46H98.6192V9.55414H119.736V15.4981H105.919ZM133.669 40.2125H145.661V46H126.369V9.60628H133.669V40.2125ZM157.601 15.4981V24.6226H169.853V30.4101H157.601V40.056H171.418V46H150.301V9.55414H171.418V15.4981H157.601ZM198.699 27.3339C200.749 27.7162 202.435 28.7417 203.756 30.4101C205.077 32.0786 205.738 33.9904 205.738 36.1455C205.738 38.0921 205.251 39.8127 204.278 41.3074C203.339 42.7673 201.966 43.9144 200.159 44.7486C198.351 45.5829 196.213 46 193.745 46H178.051V9.60628H193.068C195.535 9.60628 197.656 10.006 199.429 10.8055C201.236 11.605 202.592 12.7173 203.496 14.1425C204.434 15.5676 204.903 17.184 204.903 18.9915C204.903 21.1118 204.33 22.8846 203.183 24.3098C202.07 25.7349 200.576 26.743 198.699 27.3339ZM185.351 24.6226H192.025C193.763 24.6226 195.101 24.2402 196.04 23.4755C196.978 22.676 197.447 21.5463 197.447 20.0864C197.447 18.6265 196.978 17.4968 196.04 16.6973C195.101 15.8978 193.763 15.4981 192.025 15.4981H185.351V24.6226ZM192.703 40.056C194.475 40.056 195.848 39.6389 196.822 38.8047C197.83 37.9704 198.334 36.7886 198.334 35.2592C198.334 33.695 197.812 32.4784 196.769 31.6094C195.727 30.7056 194.319 30.2537 192.546 30.2537H185.351V40.056H192.703ZM230.326 46L222.296 31.8179H218.855V46H211.555V9.60628H225.216C228.031 9.60628 230.43 10.1103 232.411 11.1183C234.393 12.0916 235.87 13.4299 236.843 15.1331C237.851 16.8016 238.355 18.6786 238.355 20.7642C238.355 23.1627 237.66 25.3352 236.27 27.2817C234.879 29.1935 232.811 30.5144 230.065 31.2444L238.772 46H230.326ZM218.855 26.3432H224.955C226.937 26.3432 228.414 25.874 229.387 24.9354C230.36 23.9622 230.847 22.6239 230.847 20.9207C230.847 19.2522 230.36 17.9661 229.387 17.0623C228.414 16.1238 226.937 15.6545 224.955 15.6545H218.855V26.3432ZM267.273 39.0654H252.778L250.38 46H242.715L255.803 9.55414H264.301L277.388 46H269.672L267.273 39.0654ZM265.292 33.2257L260.026 18.0008L254.76 33.2257H265.292ZM289.58 40.2125H301.572V46H282.28V9.60628H289.58V40.2125ZM313.511 9.60628V46H306.212V9.60628H313.511ZM328.179 39.8475H344.551V46H319.733V40.3689L336 15.7588H319.733V9.60628H344.551V15.2374L328.179 39.8475ZM358.065 15.4981V24.6226H370.317V30.4101H358.065V40.056H371.882V46H350.765V9.55414H371.882V15.4981H358.065Z" fill="black"/>
</svg>
