<svg width="13" height="13" viewBox="0 0 13 13" fill="none" xmlns="http://www.w3.org/2000/svg">
<path d="M6.34006 5.06779C6.64058 5.06779 6.93815 5.0086 7.2158 4.8936C7.49344 4.7786 7.74571 4.61003 7.95821 4.39753C8.17071 4.18503 8.33927 3.93276 8.45428 3.65512C8.56928 3.37748 8.62847 3.0799 8.62847 2.77938C8.62847 2.47886 8.56928 2.18129 8.45428 1.90364C8.33927 1.626 8.17071 1.37373 7.95821 1.16123C7.74571 0.948729 7.49344 0.780165 7.2158 0.665162C6.93815 0.550158 6.64058 0.490967 6.34006 0.490967C5.73313 0.490967 5.15107 0.732067 4.72191 1.16123C4.29274 1.59039 4.05164 2.17246 4.05164 2.77938C4.05164 3.38631 4.29274 3.96837 4.72191 4.39753C5.15107 4.82669 5.73313 5.06779 6.34006 5.06779ZM0.455566 11.8677V12.26H12.2246V11.8677C12.2246 10.4031 12.2245 9.67077 11.9395 9.11109C11.6887 8.61901 11.2887 8.21893 10.7966 7.96819C10.2369 7.68312 9.50461 7.68312 8.04002 7.68312H4.64009C3.17551 7.68312 2.44322 7.68312 1.88354 7.96819C1.39145 8.21893 0.991374 8.61901 0.740637 9.11109C0.455566 9.67077 0.455566 10.4031 0.455566 11.8677Z" fill="#272932"/>
</svg>
