<svg width="1369" height="1753" viewBox="0 0 1369 1753" fill="none" xmlns="http://www.w3.org/2000/svg">
<path d="M374 974.102C374 930.967 408.967 896 452.102 896H821V1021.9C821 1065.03 786.033 1100 742.898 1100H374V974.102Z" fill="#7CCADC"/>
<path d="M0 998C0 941.667 45.667 896 102 896H317V1100H102C45.667 1100 0 1054.33 0 998V998Z" fill="#F4CE7D"/>
<path d="M878 998C878 941.667 923.667 896 980 896H1195V1100H980C923.667 1100 878 1054.33 878 998V998Z" fill="#F4CE7D"/>
<path d="M61 287.102C61 243.967 95.9674 209 139.102 209H508V334.898C508 378.033 473.033 413 429.898 413H61V287.102Z" fill="#7CCADC"/>
<path d="M61 1425.1C61 1381.97 95.9674 1347 139.102 1347H508V1472.9C508 1516.03 473.033 1551 429.898 1551H61V1425.1Z" fill="#7CCADC"/>
<path d="M61 85.5C61 38.2797 99.2797 0 146.5 0H374V171H146.5C99.2797 171 61 132.72 61 85.5V85.5Z" fill="#F4CE7D"/>
<path d="M939 85.5C939 38.2797 977.28 0 1024.5 0H1252V171H1024.5C977.28 171 939 132.72 939 85.5V85.5Z" fill="#F4CE7D"/>
<path d="M61 1223.5C61 1176.28 99.2797 1138 146.5 1138H374V1309H146.5C99.2797 1309 61 1270.72 61 1223.5V1223.5Z" fill="#F4CE7D"/>
<path d="M939 1223.5C939 1176.28 977.28 1138 1024.5 1138H1252V1309H1024.5C977.28 1309 939 1270.72 939 1223.5V1223.5Z" fill="#F4CE7D"/>
<path d="M342 529.5C342 482.28 380.28 444 427.5 444H733V615H427.5C380.28 615 342 576.72 342 529.5V529.5Z" fill="#F4CE7D"/>
<path d="M342 1667.5C342 1620.28 380.28 1582 427.5 1582H733V1753H427.5C380.28 1753 342 1714.72 342 1667.5V1667.5Z" fill="#F4CE7D"/>
<path d="M802 305C802 248.667 847.667 203 904 203H1119V407H904C847.667 407 802 361.333 802 305V305Z" fill="#897BA2"/>
<path d="M632 1443C632 1386.67 677.667 1341 734 1341H949V1545H734C677.667 1545 632 1499.33 632 1443V1443Z" fill="#897BA2"/>
<rect x="399" width="171" height="171" rx="85.5" fill="#897BA2"/>
<rect x="399" y="1138" width="171" height="171" rx="85.5" fill="#897BA2"/>
<rect x="524" y="660" width="171" height="171" rx="85.5" fill="#897BA2"/>
<rect x="67" y="662" width="171" height="171" rx="85.5" fill="#F4CE7D"/>
<rect x="945" y="662" width="171" height="171" rx="85.5" fill="#F4CE7D"/>
<rect x="271" y="638" width="220" height="220" rx="110" fill="#D98080"/>
<rect x="1149" y="638" width="220" height="220" rx="110" fill="#D98080"/>
<path d="M599 46.5608C599 20.846 619.846 0 645.561 0H765V171H599V46.5608Z" fill="#69B2A0"/>
<path d="M599 1184.56C599 1158.85 619.846 1138 645.561 1138H765V1309H599V1184.56Z" fill="#69B2A0"/>
<path d="M119 487.561C119 461.846 139.846 441 165.561 441H285V612H119V487.561Z" fill="#69B2A0"/>
<path d="M997 487.561C997 461.846 1017.85 441 1043.56 441H1163V612H997V487.561Z" fill="#69B2A0"/>
<path d="M119 1625.56C119 1599.85 139.846 1579 165.561 1579H285V1750H119V1625.56Z" fill="#69B2A0"/>
<path d="M997 1625.56C997 1599.85 1017.85 1579 1043.56 1579H1163V1750H997V1625.56Z" fill="#69B2A0"/>
<path d="M738 706.561C738 680.846 758.846 660 784.561 660H904V831H738V706.561Z" fill="#69B2A0"/>
</svg>
