<svg width="887" height="1087" viewBox="0 0 887 1087" fill="none" xmlns="http://www.w3.org/2000/svg">
<path d="M374 961.102C374 917.967 408.967 883 452.102 883H821V1008.9C821 1052.03 786.033 1087 742.898 1087H374V961.102Z" fill="#7CCADC"/>
<path d="M0 985C0 928.667 45.667 883 102 883H317V1087H102C45.667 1087 0 1041.33 0 985Z" fill="#F4CE7D"/>
<path d="M61 274.102C61 230.967 95.9674 196 139.102 196H508V321.898C508 365.033 473.033 400 429.898 400H61V274.102Z" fill="#7CCADC"/>
<path d="M61 72.5C61 25.2797 99.2797 -13 146.5 -13H374V158H146.5C99.2797 158 61 119.72 61 72.5Z" fill="#F4CE7D"/>
<path d="M342 516.5C342 469.28 380.28 431 427.5 431H733V602H427.5C380.28 602 342 563.72 342 516.5Z" fill="#F4CE7D"/>
<path d="M802 292C802 235.667 847.667 190 904 190H1119V394H904C847.667 394 802 348.333 802 292Z" fill="#897BA2"/>
<rect x="399" y="-13" width="171" height="171" rx="85.5" fill="#897BA2"/>
<rect x="524" y="647" width="171" height="171" rx="85.5" fill="#897BA2"/>
<rect x="67" y="649" width="171" height="171" rx="85.5" fill="#F4CE7D"/>
<rect x="271" y="625" width="220" height="220" rx="110" fill="#D98080"/>
<path d="M599 33.5608C599 7.84597 619.846 -13 645.561 -13H765V158H599V33.5608Z" fill="#69B2A0"/>
<path d="M119 474.561C119 448.846 139.846 428 165.561 428H285V599H119V474.561Z" fill="#69B2A0"/>
<path d="M738 693.561C738 667.846 758.846 647 784.561 647H904V818H738V693.561Z" fill="#69B2A0"/>
</svg>
