<svg width="2328" height="1753" viewBox="0 0 2328 1753" fill="none" xmlns="http://www.w3.org/2000/svg">
<g clip-path="url(#clip0_50_98)">
<rect width="2328" height="1753" fill="#FCF8F5"/>
<path d="M1342.86 1181.58C1342.86 1131.81 1383.2 1091.47 1432.96 1091.47H1968.96V1287.11C1968.96 1336.87 1928.62 1377.21 1878.86 1377.21H1342.86V1181.58Z" fill="#7CCADC"/>
<path d="M819 1215.6C819 1147.05 874.573 1091.47 943.125 1091.47H1263.02V1377.21H943.125C874.573 1377.21 819 1321.64 819 1253.09V1215.6Z" fill="#F4CE7D"/>
<path d="M2048.8 1215.6C2048.8 1147.05 2104.38 1091.47 2172.93 1091.47H2448V1377.21H2172.93C2104.38 1377.21 2048.8 1321.64 2048.8 1253.09V1215.6Z" fill="#F4CE7D"/>
<path d="M1212.59 219.306C1212.59 169.542 1252.93 129.201 1302.7 129.201H1838.7V324.836C1838.7 374.6 1798.36 414.941 1748.6 414.941H1212.59V219.306Z" fill="#7CCADC"/>
<path d="M904.442 1813.29C904.442 1763.52 944.783 1723.18 994.547 1723.18H1530.55V1918.82C1530.55 1968.58 1490.21 2008.92 1440.44 2008.92H904.442V1813.29Z" fill="#7CCADC"/>
<path d="M904.442 -43.7842C904.442 -109.925 958.06 -163.543 1024.2 -163.543H1342.86V75.9747H1024.2C958.06 75.9747 904.442 22.3568 904.442 -43.7842V-43.7842Z" fill="#F4CE7D"/>
<path d="M2134.25 -43.7842C2134.25 -109.925 2187.86 -163.543 2254 -163.543H2448V75.9747H2254C2187.86 75.9747 2134.25 22.3568 2134.25 -43.7842V-43.7842Z" fill="#D98080"/>
<path d="M904.442 1550.2C904.442 1484.06 958.06 1430.44 1024.2 1430.44H1342.86V1669.96H1024.2C958.06 1669.96 904.442 1616.34 904.442 1550.2V1550.2Z" fill="#D98080"/>
<path d="M2009.58 1550.2C2009.58 1484.06 2063.2 1430.44 2129.34 1430.44H2448V1669.96H2129.34C2063.2 1669.96 2009.58 1616.34 2009.58 1550.2V1550.2Z" fill="#D98080"/>
<path d="M1298.04 578.121C1298.04 511.98 1351.65 458.362 1417.79 458.362H1845.7V697.88H1417.79C1351.65 697.88 1298.04 644.262 1298.04 578.121V578.121Z" fill="#F4CE7D"/>
<path d="M1942.35 244.921C1942.35 176.369 1997.92 120.797 2066.48 120.797H2386.37V406.537H2066.48C1997.92 406.537 1942.35 350.964 1942.35 282.412V244.921Z" fill="#897BA2"/>
<path d="M1704.23 1838.9C1704.23 1770.35 1759.81 1714.78 1828.36 1714.78H2148.25V2000.52H1828.36C1759.81 2000.52 1704.23 1944.95 1704.23 1876.4V1838.9Z" fill="#897BA2"/>
<rect x="1377.87" y="-163.543" width="239.518" height="239.518" rx="119.759" fill="#897BA2"/>
<rect x="1377.87" y="1430.44" width="239.518" height="239.518" rx="119.759" fill="#897BA2"/>
<rect x="1552.96" y="760.911" width="239.518" height="239.518" rx="119.759" fill="#897BA2"/>
<rect x="912.846" y="763.712" width="239.518" height="239.518" rx="119.759" fill="#F4CE7D"/>
<rect x="2142.65" y="763.712" width="239.518" height="239.518" rx="119.759" fill="#F4CE7D"/>
<rect x="1198.59" y="730.096" width="308.151" height="308.151" rx="154.076" fill="#D98080"/>
<path d="M1658.01 -109.827C1658.01 -139.493 1682.06 -163.543 1711.73 -163.543H1890.53V75.9747H1658.01V-109.827Z" fill="#69B2A0"/>
<path d="M1658.01 1484.16C1658.01 1454.49 1682.06 1430.44 1711.73 1430.44H1890.53V1669.96H1658.01V1484.16Z" fill="#69B2A0"/>
<path d="M985.682 507.877C985.682 478.21 1009.73 454.16 1039.4 454.16H1218.2V693.678H985.682V507.877Z" fill="#69B2A0"/>
<path d="M2215.49 507.877C2215.49 478.21 2239.53 454.16 2269.2 454.16H2448V693.678H2215.49V507.877Z" fill="#69B2A0"/>
<path d="M1852.71 814.627C1852.71 784.961 1876.76 760.911 1906.42 760.911H2085.22V1000.43H1852.71V814.627Z" fill="#69B2A0"/>
</g>
<defs>
<clipPath id="clip0_50_98">
<rect width="2328" height="1753" fill="white"/>
</clipPath>
</defs>
</svg>
