<svg width="704" height="415" viewBox="0 0 704 415" fill="none" xmlns="http://www.w3.org/2000/svg">
<path d="M0 287.102C0 243.967 34.9674 209 78.102 209H447V334.898C447 378.033 412.033 413 368.898 413H0V287.102Z" fill="#7CCADC"/>
<path d="M0 85.5C0 38.2797 38.2797 0 85.5 0H313V171H85.5C38.2797 171 0 132.72 0 85.5Z" fill="#D9D9D9"/>
<path d="M0 85.5C0 38.2797 38.2797 0 85.5 0H313V171H85.5C38.2797 171 0 132.72 0 85.5Z" fill="#F4CE7D"/>
<rect x="338" width="171" height="171" rx="85.5" fill="#D9D9D9"/>
<rect x="338" width="171" height="171" rx="85.5" fill="#897BA2"/>
<rect x="484" y="195" width="220" height="220" rx="110" fill="#D98080"/>
<path d="M538 46.5608C538 20.846 558.846 0 584.561 0H704V171H538V46.5608Z" fill="#69B2A0"/>
</svg>
